# xmcd
#
# Track frame offsets: 
#        150
#        14111
#        28862
#        46119
#        55679
#        74270
#        83794
#        96104
#        114019
#        130260
#        141693
#
# Disc length: 2080 seconds
#
# Revision: 0
# Processed by: cddbd v1.5.2PL0 Copyright (c) Steve Scherf et al.
# Submitted via: ExactAudioCopy v0.99pb5
#
DISCID=95081e0b
DTITLE=Wooden Horse - This Kind Of Trouble
DYEAR=2013
DGENRE=Blues
TTITLE0=A Big Deal
TTITLE1=You Ain't Letting Me Down
TTITLE2=Get It Right
TTITLE3=All Along
TTITLE4=Kind Hearted Woman
TTITLE5=This Kind Of Trouble
TTITLE6=Crazy Mama
TTITLE7=The Walking Rain
TTITLE8=Sittin' On Top Of The World
TTITLE9=Kinda Man
TTITLE10=Time I's Leaving
EXTD=
EXTT0=
EXTT1=
EXTT2=
EXTT3=
EXTT4=
EXTT5=
EXTT6=
EXTT7=
EXTT8=
EXTT9=
EXTT10=
PLAYORDER=
